<?xml version="1.0" encoding="UTF-8"?>
<svg width="173px" height="33px" viewBox="0 0 173 33" version="1.1" xmlns="http://www.w3.org/2000/svg">
    <g id="Logo-Outlines" stroke="none" stroke-width="1" fill="none" fill-rule="evenodd">
        <path d="M6.08984375,25 L6.08984375,18.0507812 L11.890625,18.0507812 L11.890625,25 L17.2226562,25 L17.2226562,7.8203125 L11.890625,7.8203125 L11.890625,13.8320312 L6.08984375,13.8320312 L6.08984375,7.8203125 L0.78125,7.8203125 L0.78125,25 L6.08984375,25 Z M23.2161465,25.28125 C24.333334,25.28125 25.3138028,25.109375 26.1575528,24.765625 C26.7747403,24.5078125 27.395834,24.078125 28.020834,23.4765625 C28.0755215,23.8359375 28.130209,24.0996094 28.1848965,24.2675781 C28.239584,24.4355469 28.3567715,24.6796875 28.536459,25 L28.536459,25 L33.0130215,25 C32.7630215,24.484375 32.6009121,24.0605469 32.5266934,23.7285156 C32.4524746,23.3964844 32.4153653,22.9375 32.4153653,22.3515625 L32.4153653,22.3515625 L32.4153653,16.8554688 C32.4153653,16.2695312 32.2981778,15.6542969 32.0638028,15.0097656 C31.8294278,14.3652344 31.5091153,13.8671875 31.1028653,13.515625 C30.5247403,13.0078125 29.802084,12.6738281 28.9348965,12.5136719 C28.067709,12.3535156 26.9192715,12.2734375 25.489584,12.2734375 C24.598959,12.2734375 23.770834,12.3398438 23.005209,12.4726562 C22.239584,12.6054688 21.6380215,12.7929688 21.2005215,13.0351562 C20.5911465,13.3710938 20.1243496,13.7675781 19.8001309,14.2246094 C19.4759121,14.6816406 19.2278653,15.3085938 19.0559903,16.1054688 L19.0559903,16.1054688 L23.614584,16.5859375 C23.802084,16.046875 24.0481778,15.6796875 24.3528653,15.484375 C24.7434903,15.234375 25.3294278,15.109375 26.1106778,15.109375 C26.7200528,15.109375 27.145834,15.2265625 27.3880215,15.4609375 C27.630209,15.6953125 27.7513028,16.1054688 27.7513028,16.6914062 C27.1575528,16.9257812 26.5950528,17.1152344 26.0638028,17.2597656 C25.5325528,17.4042969 24.3723965,17.65625 22.583334,18.015625 C21.0911465,18.3125 20.067709,18.765625 19.5130215,19.375 C18.958334,19.984375 18.6809903,20.7617188 18.6809903,21.7070312 C18.6809903,22.7148438 19.0657559,23.5625 19.8352871,24.25 C20.6048184,24.9375 21.7317715,25.28125 23.2161465,25.28125 Z M25.0091153,22.6328125 C24.5013028,22.6328125 24.1165371,22.5136719 23.8548184,22.2753906 C23.5930996,22.0371094 23.4622403,21.7304688 23.4622403,21.3554688 C23.4622403,21.0273438 23.5950528,20.734375 23.8606778,20.4765625 C24.1184903,20.2265625 24.7317715,19.9726562 25.7005215,19.7148438 C26.411459,19.5351562 27.0950528,19.328125 27.7513028,19.09375 L27.7513028,19.09375 L27.7513028,19.8554688 C27.7513028,20.4492188 27.6555996,20.9316406 27.4641934,21.3027344 C27.2727871,21.6738281 26.9485684,21.9882812 26.4915371,22.2460938 C26.0345059,22.5039062 25.5403653,22.6328125 25.0091153,22.6328125 Z M38.947918,25 L38.947918,20.828125 C38.947918,18.8359375 39.1940118,17.4765625 39.6861993,16.75 C40.0299493,16.234375 40.5143243,15.9765625 41.1393243,15.9765625 C41.4674493,15.9765625 41.9127618,16.09375 42.4752618,16.328125 L42.4752618,16.328125 L43.9518243,12.9296875 C43.1158868,12.4921875 42.3463555,12.2734375 41.6432305,12.2734375 C40.9713555,12.2734375 40.4069024,12.4394531 39.9498711,12.7714844 C39.4928399,13.1035156 39.0494805,13.7109375 38.619793,14.59375 L38.619793,14.59375 L38.619793,12.5546875 L34.1549493,12.5546875 L34.1549493,25 L38.947918,25 Z M52.9804708,25 L58.265627,12.5546875 L53.4492208,12.5546875 L50.953127,20.4414062 L48.5390645,12.5546875 L43.5703145,12.5546875 L48.750002,25 L52.9804708,25 Z M64.4348985,25.28125 C66.333336,25.28125 67.7903673,25.0097656 68.8059923,24.4667969 C69.8216173,23.9238281 70.6888048,23.0273438 71.4075548,21.7773438 L71.4075548,21.7773438 L66.708336,21.34375 C66.411461,21.71875 66.1341173,21.9804688 65.8763048,22.1289062 C65.4544298,22.3632812 65.0091173,22.4804688 64.5403673,22.4804688 C63.7981798,22.4804688 63.1966173,22.2109375 62.7356798,21.671875 C62.4075548,21.296875 62.2005235,20.7265625 62.114586,19.9609375 L62.114586,19.9609375 L71.677086,19.9609375 L71.677086,19.421875 C71.677086,17.78125 71.4075548,16.4492188 70.8684923,15.4257812 C70.3294298,14.4023438 69.5442735,13.6210938 68.5130235,13.0820312 C67.4817735,12.5429688 66.0755235,12.2734375 64.2942735,12.2734375 C62.098961,12.2734375 60.3782579,12.875 59.1321641,14.078125 C57.8860704,15.28125 57.2630235,16.8554688 57.2630235,18.8007812 C57.2630235,20.1679688 57.5735704,21.3574219 58.1946641,22.3691406 C58.8157579,23.3808594 59.598961,24.1191406 60.5442735,24.5839844 C61.489586,25.0488281 62.786461,25.28125 64.4348985,25.28125 Z M66.8255235,17.6757812 L62.1263048,17.6757812 C62.2044298,16.9335938 62.3880235,16.375 62.677086,16 C63.130211,15.3984375 63.7356798,15.0976562 64.4934923,15.0976562 C65.1497423,15.0976562 65.6790391,15.296875 66.0813829,15.6953125 C66.4837266,16.09375 66.7317735,16.7539062 66.8255235,17.6757812 L66.8255235,17.6757812 Z M75.5612013,30.0507812 C77.2565138,30.0507812 78.5182325,29.6757812 79.3463575,28.9257812 C79.932295,28.3945312 80.5065138,27.3710938 81.0690138,25.8554688 L81.0690138,25.8554688 L86.0026075,12.5546875 L81.3033888,12.5546875 L78.9244825,20.8398438 L76.3580763,12.5546875 L71.3190138,12.5546875 L76.5455763,25 C76.3033888,25.6640625 76.0084669,26.125 75.6608106,26.3828125 C75.3131544,26.640625 74.8580763,26.7695312 74.2955763,26.7695312 C73.4518263,26.7695312 72.6862013,26.6601562 71.9987013,26.4414062 L71.9987013,26.4414062 L72.3737013,29.7695312 C73.8112013,29.9570312 74.8737013,30.0507812 75.5612013,30.0507812 Z M98.7513068,25 L98.7513068,18.0273438 L99.2200568,18.0273438 C99.7044318,18.0273438 100.138026,18.1601562 100.520838,18.4257812 C100.802088,18.6289062 101.122401,19.0703125 101.481776,19.75 L101.481776,19.75 L104.317713,25 L110.317713,25 L107.751307,20.0195312 C107.626307,19.7695312 107.37826,19.4140625 107.007166,18.953125 C106.636072,18.4921875 106.352869,18.1914062 106.157557,18.0507812 C105.868494,17.8398438 105.407557,17.6289062 104.774744,17.4179688 C105.563807,17.2382812 106.184901,17.0117188 106.638026,16.7382812 C107.348963,16.3085938 107.907557,15.7480469 108.313807,15.0566406 C108.720057,14.3652344 108.923182,13.5429688 108.923182,12.5898438 C108.923182,11.4960938 108.657557,10.5683594 108.126307,9.80664062 C107.595057,9.04492188 106.895838,8.5234375 106.028651,8.2421875 C105.161463,7.9609375 103.907557,7.8203125 102.266932,7.8203125 L102.266932,7.8203125 L93.4192755,7.8203125 L93.4192755,25 L98.7513068,25 Z M100.989588,14.78125 L98.7513068,14.78125 L98.7513068,11.2890625 L101.083338,11.2890625 C102.052088,11.2890625 102.712244,11.4375 103.063807,11.734375 C103.415369,12.03125 103.591151,12.4570312 103.591151,13.0117188 C103.591151,13.3867188 103.479822,13.71875 103.257166,14.0078125 C103.03451,14.296875 102.747401,14.4765625 102.395838,14.546875 C101.700526,14.703125 101.231776,14.78125 100.989588,14.78125 L100.989588,14.78125 Z M114.483078,25.28125 C115.600266,25.28125 116.580735,25.109375 117.424485,24.765625 C118.041672,24.5078125 118.662766,24.078125 119.287766,23.4765625 C119.342453,23.8359375 119.397141,24.0996094 119.451828,24.2675781 C119.506516,24.4355469 119.623703,24.6796875 119.803391,25 L119.803391,25 L124.279953,25 C124.029953,24.484375 123.867844,24.0605469 123.793625,23.7285156 C123.719406,23.3964844 123.682297,22.9375 123.682297,22.3515625 L123.682297,22.3515625 L123.682297,16.8554688 C123.682297,16.2695312 123.56511,15.6542969 123.330735,15.0097656 C123.09636,14.3652344 122.776047,13.8671875 122.369797,13.515625 C121.791672,13.0078125 121.069016,12.6738281 120.201828,12.5136719 C119.334641,12.3535156 118.186203,12.2734375 116.756516,12.2734375 C115.865891,12.2734375 115.037766,12.3398438 114.272141,12.4726562 C113.506516,12.6054688 112.904953,12.7929688 112.467453,13.0351562 C111.858078,13.3710938 111.391281,13.7675781 111.067063,14.2246094 C110.742844,14.6816406 110.494797,15.3085938 110.322922,16.1054688 L110.322922,16.1054688 L114.881516,16.5859375 C115.069016,16.046875 115.31511,15.6796875 115.619797,15.484375 C116.010422,15.234375 116.59636,15.109375 117.37761,15.109375 C117.986985,15.109375 118.412766,15.2265625 118.654953,15.4609375 C118.897141,15.6953125 119.018235,16.1054688 119.018235,16.6914062 C118.424485,16.9257812 117.861985,17.1152344 117.330735,17.2597656 C116.799485,17.4042969 115.639328,17.65625 113.850266,18.015625 C112.358078,18.3125 111.334641,18.765625 110.779953,19.375 C110.225266,19.984375 109.947922,20.7617188 109.947922,21.7070312 C109.947922,22.7148438 110.332688,23.5625 111.102219,24.25 C111.87175,24.9375 112.998703,25.28125 114.483078,25.28125 Z M116.276047,22.6328125 C115.768235,22.6328125 115.383469,22.5136719 115.12175,22.2753906 C114.860031,22.0371094 114.729172,21.7304688 114.729172,21.3554688 C114.729172,21.0273438 114.861985,20.734375 115.12761,20.4765625 C115.385422,20.2265625 115.998703,19.9726562 116.967453,19.7148438 C117.678391,19.5351562 118.361985,19.328125 119.018235,19.09375 L119.018235,19.09375 L119.018235,19.8554688 C119.018235,20.4492188 118.922531,20.9316406 118.731125,21.3027344 C118.539719,21.6738281 118.2155,21.9882812 117.758469,22.2460938 C117.301438,22.5039062 116.807297,22.6328125 116.276047,22.6328125 Z M130.191412,25 L130.191412,18.6484375 C130.191412,17.703125 130.367194,17.0234375 130.718756,16.609375 C131.070319,16.1953125 131.519537,15.9882812 132.066412,15.9882812 C132.40235,15.9882812 132.695319,16.0839844 132.945319,16.2753906 C133.195319,16.4667969 133.3711,16.71875 133.472662,17.03125 C133.535162,17.2265625 133.566412,17.5976562 133.566412,18.1445312 L133.566412,18.1445312 L133.566412,25 L138.347662,25 L138.347662,18.578125 C138.347662,17.6796875 138.519537,17.0273438 138.863287,16.6210938 C139.207037,16.2148438 139.660162,16.0117188 140.222662,16.0117188 C140.699225,16.0117188 141.097662,16.2265625 141.417975,16.65625 C141.636725,16.9296875 141.7461,17.3476562 141.7461,17.9101562 L141.7461,17.9101562 L141.7461,25 L146.52735,25 L146.52735,17.1835938 C146.52735,15.4960938 146.15235,14.2558594 145.40235,13.4628906 C144.65235,12.6699219 143.609381,12.2734375 142.273444,12.2734375 C141.367194,12.2734375 140.605475,12.4199219 139.988287,12.7128906 C139.3711,13.0058594 138.687506,13.5585938 137.937506,14.3710938 C137.570319,13.6757812 137.097662,13.1523438 136.519537,12.8007812 C135.941412,12.4492188 135.156256,12.2734375 134.164069,12.2734375 C133.242194,12.2734375 132.455084,12.4335938 131.80274,12.7539062 C131.150397,13.0742188 130.503912,13.6132812 129.863287,14.3710938 L129.863287,14.3710938 L129.863287,12.5546875 L125.410162,12.5546875 L125.410162,25 L130.191412,25 Z M154.782559,25.28125 C156.680996,25.28125 158.138028,25.0097656 159.153653,24.4667969 C160.169278,23.9238281 161.036465,23.0273438 161.755215,21.7773438 L161.755215,21.7773438 L157.055996,21.34375 C156.759121,21.71875 156.481778,21.9804688 156.223965,22.1289062 C155.80209,22.3632812 155.356778,22.4804688 154.888028,22.4804688 C154.14584,22.4804688 153.544278,22.2109375 153.08334,21.671875 C152.755215,21.296875 152.548184,20.7265625 152.462246,19.9609375 L152.462246,19.9609375 L162.024746,19.9609375 L162.024746,19.421875 C162.024746,17.78125 161.755215,16.4492188 161.216153,15.4257812 C160.67709,14.4023438 159.891934,13.6210938 158.860684,13.0820312 C157.829434,12.5429688 156.423184,12.2734375 154.641934,12.2734375 C152.446621,12.2734375 150.725918,12.875 149.479824,14.078125 C148.233731,15.28125 147.610684,16.8554688 147.610684,18.8007812 C147.610684,20.1679688 147.921231,21.3574219 148.542324,22.3691406 C149.163418,23.3808594 149.946621,24.1191406 150.891934,24.5839844 C151.837246,25.0488281 153.134121,25.28125 154.782559,25.28125 Z M157.173184,17.6757812 L152.473965,17.6757812 C152.55209,16.9335938 152.735684,16.375 153.024746,16 C153.477871,15.3984375 154.08334,15.0976562 154.841153,15.0976562 C155.497403,15.0976562 156.026699,15.296875 156.429043,15.6953125 C156.831387,16.09375 157.079434,16.7539062 157.173184,17.6757812 L157.173184,17.6757812 Z M167.88933,25 L167.88933,20.828125 C167.88933,18.8359375 168.135424,17.4765625 168.627612,16.75 C168.971362,16.234375 169.455737,15.9765625 170.080737,15.9765625 C170.408862,15.9765625 170.854174,16.09375 171.416674,16.328125 L171.416674,16.328125 L172.893237,12.9296875 C172.057299,12.4921875 171.287768,12.2734375 170.584643,12.2734375 C169.912768,12.2734375 169.348315,12.4394531 168.891283,12.7714844 C168.434252,13.1035156 167.990893,13.7109375 167.561205,14.59375 L167.561205,14.59375 L167.561205,12.5546875 L163.096362,12.5546875 L163.096362,25 L167.88933,25 Z" id="HarveyRamer" fill="#009FFF" fill-rule="nonzero"></path>
    </g>
</svg>